<?xml version="1.0" encoding="utf-8"?>
<!-- Generator: Adobe Illustrator 27.0.0, SVG Export Plug-In . SVG Version: 6.00 Build 0)  -->
<svg version="1.1" id="Layer_1" xmlns="http://www.w3.org/2000/svg" xmlns:xlink="http://www.w3.org/1999/xlink" x="0px" y="0px"
	 viewBox="0 0 113.5 187.1" style="enable-background:new 0 0 113.5 187.1;" xml:space="preserve">
<style type="text/css">
	.st0{fill:#FFFFFF;stroke:#467551;stroke-miterlimit:10;}
	.st1{fill-rule:evenodd;clip-rule:evenodd;fill:#662F17;}
	.st2{fill:#FFFFFF;}
	.st3{fill:#467551;}
	.st4{fill:#414042;}
</style>
<g>
	<g>
		<path class="st2" d="M81.6,186.6H0.5V31.8c0-17.2,14.1-31.3,31.3-31.3h49.8c17.2,0,31.3,14.1,31.3,31.3v123.4
			C113,172.5,98.9,186.6,81.6,186.6z"/>
		<path class="st3" d="M81.6,187.1H0V31.8C0,14.3,14.3,0,31.8,0h49.8c17.5,0,31.8,14.3,31.8,31.8v123.4
			C113.5,172.8,99.2,187.1,81.6,187.1z M1,186.1h80.6c17,0,30.8-13.8,30.8-30.8V31.8c0-17-13.8-30.8-30.8-30.8H31.8
			C14.8,1,1,14.8,1,31.8V186.1z"/>
	</g>
	<g>
		<g>
			<g>
				<path class="st4" d="M46.1,34.5c-0.3,0.1-0.7,0.3-1.3,0.4c-0.5,0.1-0.9,0.2-1,0.3c-1.1,0.3-2.2,0.6-3.4,1
					c-1.2,0.3-2.4,0.7-3.7,1c-1.2,0.3-2.4,0.6-3.6,0.8C32,38.2,31,38.2,30,38.2s-1.8-0.3-2.6-1c-0.8-0.6-1.1-1.4-1-2.4
					c0.1-1.1,0.5-1.9,1.2-2.5c0.8-0.6,2.2-1.1,4.5-1.4c1.9-0.3,3.8-0.6,5.7-1c1.9-0.4,3.8-0.9,5.6-1.4c1.1-0.3,2.2-0.6,3.3-0.9
					c1.1-0.3,2.1-0.4,2.8-0.4c1,0,1.8,0.3,2.4,1c0.6,0.7,0.9,1.5,0.9,2.3c0,2.5-0.3,4.9-1,7.4c-0.6,2.5-1.4,4.8-2.4,7
					c0.6,0.5,1.5,1.3,2.8,2.5c1.3,1.1,2.6,2.4,3.9,3.8c1.3,1.4,2.5,2.8,3.5,4.1c1,1.3,1.5,2.4,1.5,3.1c0,0.9-0.4,1.6-1.2,2.1
					c-0.8,0.5-1.6,0.8-2.5,0.8c-0.9,0-1.7-0.3-2.4-1c-0.3-0.3-0.6-0.7-0.9-1.1c-0.3-0.4-0.5-0.8-0.8-1.1c-1.1-1.5-2.2-2.8-3.3-3.9
					c-1.1-1.2-2.3-2.3-3.7-3.4c-1.8,2.7-3.9,5.3-6.4,7.8c-2.5,2.5-5.4,4.3-8.7,5.6c-0.5,0.3-1,0.4-1.6,0.4c-0.8,0-1.4-0.3-2-0.8
					c-0.6-0.5-0.9-1.2-0.9-1.9c0-0.9,0.3-1.6,1-2.3c0.4-0.4,0.8-0.6,1.3-0.8c0.5-0.2,1-0.4,1.5-0.7c4.1-2.3,7.5-5.5,10.2-9.7
					C43.7,44.3,45.4,39.7,46.1,34.5z M76.8,65.8c0.5-4.4,0.9-8.9,1.2-13.5c0.3-4.6,0.5-9.1,0.5-13.5c-1.2,0.7-2.7,1.5-4.4,2.3
					c-1.7,0.8-3.5,1.6-5.4,2.3c-1.9,0.7-3.7,1.3-5.5,1.8c-1.8,0.5-3.4,0.7-4.8,0.7c-0.9,0-1.6-0.4-2.2-1.1c-0.6-0.7-0.9-1.5-0.9-2.4
					c0-0.6,0.2-1.1,0.5-1.5c0.3-0.4,0.7-0.8,1.1-1.1c0.2-0.1,0.7-0.3,1.4-0.5c0.8-0.2,1.6-0.4,2.6-0.7c1-0.2,1.9-0.4,2.7-0.6
					c0.9-0.2,1.5-0.3,1.9-0.5c2.2-0.7,4.4-1.6,6.7-2.6c2.2-1,4.3-2.3,6.2-3.8c-0.1-1.1-0.2-2.1-0.3-3.1c-0.1-1-0.2-2-0.3-3.1
					c-0.3-1.5-0.5-3-0.8-4.5c-0.3-1.6-0.4-3.1-0.4-4.6c0-1.1,0.4-2,1.1-2.8c0.7-0.8,1.6-1.1,2.7-1.1c0.7,0,1.4,0.2,2,0.6
					c0.6,0.4,1.1,0.9,1.4,1.6c0.3,0.5,0.5,1.6,0.7,3.4c0.2,1.8,0.4,3.7,0.5,5.8c0.2,2.1,0.3,4.1,0.4,6.1c0.1,1.9,0.1,3.3,0.1,4
					c0,6.5-0.4,13-1.1,19.3c-0.7,6.4-1.5,12.7-2.4,19.1c-0.1,0.3-0.1,0.8-0.2,1.4c-0.1,0.6-0.1,1.2-0.2,1.9
					c-0.1,0.7-0.2,1.3-0.3,1.8c-0.1,0.5-0.3,0.9-0.4,1.2c-0.6,1-1.5,1.5-2.5,1.5c-0.8,0-1.4-0.3-1.9-0.8c-0.5-0.5-0.8-1.2-0.8-2
					v-0.3c0.1-1.8,0.3-3.6,0.5-5.4C76.4,69.3,76.6,67.6,76.8,65.8z"/>
			</g>
			<g>
				<path class="st4" d="M87.1,117.7c-0.2,0.6-0.9,1.1-1.9,1.6c-1,0.5-2.2,0.9-3.5,1.3s-2.6,0.7-3.8,1s-2.2,0.5-2.8,0.7
					c-6.2,1.5-12.6,2.6-19.1,3.1c-6.5,0.6-12.9,0.2-19.2-1.2c-1.2-0.2-2.4-0.5-3.7-0.8c-1.2-0.3-2.4-0.7-3.5-1.2
					c-1-0.4-1.7-1.1-2.1-2.1c-0.4-1-0.4-1.9,0.1-2.9c0.4-1,1-1.7,1.8-2c0.8-0.3,1.7-0.4,2.8-0.1c1.3,0.3,2.6,0.8,3.9,1.2
					c1.3,0.5,2.6,0.8,3.8,1c6.9,1.6,13.6,2,20.2,1.4c6.5-0.6,13.2-1.9,19.9-3.7c0.7-0.2,1.6-0.4,2.8-0.8c1.2-0.3,2.1-0.4,2.7-0.1
					c0.7,0.3,1.2,0.8,1.5,1.5C87.4,116.3,87.4,117,87.1,117.7z"/>
			</g>
			<g>
				<path class="st4" d="M81.3,153.1c-0.1,0.4-0.3,0.8-0.8,1.3c-0.4,0.5-0.9,0.9-1.5,1.3c-0.5,0.4-1.1,0.8-1.6,1.1
					c-0.5,0.3-1,0.6-1.3,0.9c-2,1.2-4.2,2.5-6.7,3.7c-2.5,1.2-5.1,2.2-7.8,3.1c-2.7,0.9-5.4,1.4-8.1,1.8c-2.7,0.3-5.2,0.3-7.5-0.2
					c-1.1-0.2-2.1-0.6-3-1.2s-1.5-1.4-1.8-2.7c0-1.4,0.1-2.8,0.3-4.2c0.2-1.4,0.4-2.8,0.4-4.2c0.1-1.9,0.1-3.7,0.1-5.6
					c0-1.8-0.1-3.7-0.2-5.6c-0.1-0.7-0.2-1.4-0.2-2.2c-0.1-0.7-0.2-1.5-0.3-2.3c0-0.3,0.1-0.8,0.2-1.3c0.2-1,0.7-1.8,1.6-2.3
					c0.9-0.5,1.8-0.7,2.8-0.5c0.6,0.1,1.2,0.4,1.6,0.9s0.7,1,0.9,1.5c0.4,0.9,0.6,2.4,0.7,4.6c0.1,2.2,0,4.5-0.1,6.9
					s-0.3,4.8-0.5,7.1c-0.2,2.3-0.4,3.9-0.7,5c1.8,0.4,3.8,0.4,6,0.1c2.2-0.3,4.4-0.8,6.6-1.5c2.2-0.7,4.4-1.5,6.4-2.4
					s3.9-1.9,5.5-2.8c0.5-0.3,1-0.6,1.6-1.1c0.6-0.4,1.1-0.9,1.7-1.2c0.6-0.4,1.2-0.7,1.9-0.9c0.6-0.2,1.2-0.3,1.7-0.2
					c0.6,0.1,1.2,0.5,1.5,1.2C81.3,151.9,81.5,152.5,81.3,153.1z"/>
			</g>
		</g>
		<g>
			<g>
				<path class="st1" d="M53.2,68.2c1.5,0.2,2.9,0.4,4.2,0.6c-0.1,2.6-0.1,5.2-0.2,7.6c1.7,0.3,3.1,0.8,4.5,0.8
					c1.6,0.1,2.4,1.1,3.4,1.9c3.6,2.8,5,6.8,5.8,11c0.2,1.3,0.1,2.7-0.1,4c-0.1,0.5-0.8,0.8-1.3,1.2c-0.8,3.4,0.6,7-0.8,10.4
					c-1.1,2.6-2.9,4.3-5.5,5.5c-1.4,0.6-2.5,1.7-3.8,2.6c-1.3-2.3-4.3-2-6.5-3.2c-2.6-1.4-4.8-3.3-5.3-6.5c-0.4-2.1-0.6-4.3-1.2-6.3
					c-0.2-0.7-0.1-2.1-1.5-2.3c-0.2,0-0.5-0.2-0.6-0.4c-1.2-3.7-2-7.5,0-11.2c0.2-0.4,0.4-0.9,0.5-1.4c0.7-2,2.2-2.9,4.1-3.6
					c1.5-0.5,3-1.1,4.4-1.8c0.3-0.2,0.7-0.8,0.6-1.2c-0.2-2.3-0.4-4.6-0.7-6.9C53.2,68.8,53.2,68.5,53.2,68.2z M68.5,95.5
					c-1.5,0.3-2.8,0.6-4.1,0.7c-1.8,0.2-3.7,0.3-5.6,0.4c-1.5,0.1-3,0.2-4.5,0.1c-2.2-0.1-4.4-0.3-6.5-0.3c-0.3,0-0.8,0.5-0.8,0.8
					c0.2,2.7,0.6,5.4,1.7,8c1.1,2.6,3.2,4.2,5.8,5.3c1.7,0.7,3.5,1.2,5.1,1.8c1-0.6,2-1.3,3.1-1.8c2.7-1.2,5.1-2.9,5.5-6
					C68.6,101.5,68.4,98.6,68.5,95.5z M50.5,88.8c0.4-0.8,0.8-1.4,1.1-2.1c1.1-2.4,1.1-2.4-0.5-4.3c-0.2-0.3-0.5-0.5-0.9-0.9
					c-0.3,1-0.5,2.1-0.9,3C48.3,86.3,49.2,87.5,50.5,88.8z M54.1,69.4c0.2,2.1,0.3,4.1,0.4,6c0.1,0.6,0,1.3,1.1,1.3
					c1.1,0,1-0.8,0.9-1.4c0-1.3-0.1-2.6-0.1-3.9c0-0.6,0.2-1.2,0.3-1.7C55.7,69.6,54.9,69.5,54.1,69.4z M46.1,90.2
					c0.5-1.3,1.4-2.6,1.4-3.8c0-1-1.2-1.9-2-3C43.4,87.7,43.5,88.2,46.1,90.2z M51.1,89.3c0.6,0.7,1.2,1.3,1.8,1.9
					c2.5-2.1,2.6-4.8,0.3-6.2C52.5,86.5,51.8,87.9,51.1,89.3z M63.2,88.7c-0.4,1-0.7,2-1.2,2.9c-0.6,1.2,0.4,1.5,1,2
					c0.6,0.5,1.3,0.3,1.7-0.6c0.3-0.6,0.7-1.1,1-1.7c0.1-0.2,0-0.8-0.2-0.9C64.9,89.8,64.1,89.3,63.2,88.7z M54.5,80.8
					c-0.3,0.9-0.6,1.6-0.8,2.4c-0.1,0.4-0.2,1,0,1.3c0.6,0.8,1.3,1.6,1.9,2.4c0.6-1.3,1.1-2.5,1.5-3.5c-0.5-0.6-0.9-1.1-1.3-1.5
					C55.4,81.5,55,81.2,54.5,80.8z M56.2,87.9c-0.9,1.3-1.5,2.1-2,3c-0.2,0.3-0.2,1.1,0,1.3c0.5,0.6,1.2,0.9,1.8,1.4
					c0.6-1.1,1.6-2,1.7-2.9C57.7,89.9,56.8,89,56.2,87.9z M48.1,85.9c0.4-2.1,1.4-3.8,1.2-6.1c-1,0.5-1.7,0.8-2.4,1.2
					c-1.4,0.9-1.4,1.5-0.4,2.7C47,84.4,47.4,85,48.1,85.9z M57.7,84c-0.4,1.1-1,2.1-1.2,3.2c-0.4,1.5,1.4,1.5,1.9,2.5
					c0.2-0.4,0.3-0.6,0.4-0.9c0.4-1,1.1-2,1-2.9C59.7,85.2,58.5,84.7,57.7,84z M60.3,85.2c1.5-2.5,1.4-2.8-1.6-5.3
					C57.7,83.4,57.7,83.4,60.3,85.2z M63.7,88.2c0.8,0.6,1.6,1.2,2.4,1.9c1.9-2.6,1.7-3.8-0.9-4.9C64.8,86.1,64.3,87.1,63.7,88.2z
					 M62.7,88.3c-0.7-0.6-1.3-1.2-2.1-1.9c-0.4,0.9-0.7,1.7-1.1,2.5c-0.8,1.3-0.2,2,0.9,2.6c0.2,0.1,0.4,0.3,0.5,0.4
					C61.6,90.5,62.2,89.4,62.7,88.3z M62.2,82.5c-0.4,1-0.8,1.8-1.2,2.7c-0.1,0.2,0,0.5,0.1,0.6c0.6,0.7,1.3,1.3,2.1,2
					c0.5-1.2,1-2.1,1.4-3C63.8,84.1,63,83.3,62.2,82.5z M48.3,92.7c2.3-3.6,2.1-3.4,0-5.3c-0.4,0.7-0.6,1.5-1.1,2.1
					c-0.8,1.1-0.4,1.9,0.5,2.7C47.8,92.4,48,92.5,48.3,92.7z M57.3,82.4c0.1-0.6,0.2-1.2,0.4-1.7c0.5-1.9-0.6-3.1-2.6-3
					C54.6,80.3,54.7,80.5,57.3,82.4z M52.6,83.3c1-1.2,1.5-3.2,0.6-4.1c-0.9-1-1.6,0-2.4,0.1c-0.1,0-0.3,1.1-0.1,1.5
					C51.3,81.7,52,82.4,52.6,83.3z M63,78.8c-1.1,2.3-0.9,3,1.5,5C65.8,80.8,65.8,80.7,63,78.8z M58.7,95.3c2.3-2.8,2.2-3.6-0.2-4.3
					c-0.6,1-1.2,2.1-1.9,3.2C57.4,94.7,58,95,58.7,95.3z M52.4,92.2c-0.6-0.7-1.1-1.3-1.7-2c-0.6,1.1-1.2,2.3-1.9,3.5
					c0.6,0.5,1.1,0.9,1.7,1.4C51.2,94,51.9,93.1,52.4,92.2z M68.7,85.6c-0.5,1.3-0.9,2.6-1.4,3.8c-0.6,1.4-0.6,1.5,0.9,2.1
					C69.3,89.6,70.1,87.7,68.7,85.6z M61.4,81.4c1.4-2.7,1.1-3.1-2.6-3.4C58.9,79.8,60.4,80.4,61.4,81.4z M66.1,81.5
					c-1.1,2.6-0.4,3.9,1.7,4C68.9,83.4,66.9,82.8,66.1,81.5z M53.2,92.5c-0.6,0.9-1.1,1.8-1.7,2.8c1.3,0,2.3,0.1,3.4,0.1
					c0.2-0.4,0.4-0.8,0.6-1.1C54.7,93.8,54,93.2,53.2,92.5z M68,92.6c-0.5-0.4-1-0.8-1.4-1.2c-0.8,1.3-1.5,2.5-2.2,3.8
					C66.5,95.3,67.3,94.2,68,92.6z M46.2,91.4c-0.4,0.9-0.8,1.5-0.9,2.1c-0.1,0.4,0.1,1.1,0.5,1.4c0.2,0.2,1.1,0.2,1.2,0
					c0.4-0.5,0.7-1.2,0.6-1.8C47.5,92.6,46.8,92.2,46.2,91.4z M59.7,95.5c1.4,0,2.5-0.1,3.5-0.1c0.1-0.1,0.1-0.2,0.2-0.3
					c-0.7-0.7-1.3-1.3-2-2C60.8,94,60.3,94.7,59.7,95.5z M70.1,90c-0.2,0-0.4-0.1-0.5-0.1c-0.2,0.9-0.3,1.8-0.5,2.7
					c0.1,0,0.2,0,0.2,0c-0.4,0.6-0.8,1.1-1.2,1.7c0.1,0.1,0.1,0.2,0.2,0.3c0.6-0.2,1.1-0.4,1.5-0.6C69.9,92.6,70,91.3,70.1,90z
					 M45.6,91c-0.5-0.6-1-1.3-1.5-1.9c-0.1,0-0.2,0.1-0.4,0.1c0.1,1.2,0.3,2.3,0.4,3.5c0.1,0,0.2,0,0.3,0
					C44.8,92.2,45.2,91.6,45.6,91z"/>
			</g>
		</g>
	</g>
</g>
</svg>
